<?xml version="1.0" encoding="UTF-8"?>
<svg xmlns="http://www.w3.org/2000/svg" id="Layer_1" data-name="Layer 1" viewBox="0 0 512 512" width="512" height="512"><path d="M256,52.812c-111.935,0-203,91.065-203,203A202.987,202.987,0,0,0,164.221,436.919a6,6,0,0,0,8.577-6.638,50.991,50.991,0,0,1-1.192-10.929c0-14.211,5.858-27.734,16.941-39.107a6,6,0,0,0-1.217-9.337,133.935,133.935,0,0,1-65.343-115.1c0-73.9,60.118-134.013,134.013-134.013s134.013,60.118,134.013,134.013a133.935,133.935,0,0,1-65.343,115.1,6,6,0,0,0-1.217,9.337c11.083,11.373,16.941,24.9,16.941,39.107a50.991,50.991,0,0,1-1.192,10.929,6,6,0,0,0,8.577,6.638A202.987,202.987,0,0,0,459,255.812C459,143.877,367.935,52.812,256,52.812ZM407.917,188.756a6,6,0,0,0,7.89,3.123l17.323-7.5a189.727,189.727,0,0,1,13.7,63.62H427.433a6,6,0,0,0,0,12h19.516a191,191,0,0,1-10.492,58.5l-18.765-7.427a6,6,0,1,0-4.416,11.158l18.889,7.476a189.888,189.888,0,0,1-14.2,27.382A191.942,191.942,0,0,1,396.677,385l-14.864-14.864a6,6,0,0,0-8.485,8.485l14.954,14.955a191.548,191.548,0,0,1-35.9,27.167q.017-.7.016-1.39c0-15.135-5.321-29.525-15.463-42a145.9,145.9,0,0,0,65.082-121.537C402.013,175.3,336.512,109.8,256,109.8S109.987,175.3,109.987,255.812a145.9,145.9,0,0,0,65.082,121.537c-10.142,12.478-15.463,26.868-15.463,42q0,.695.016,1.39a191.476,191.476,0,0,1-34.675-26.01l16.111-16.112a6,6,0,0,0-8.485-8.485L116.48,386.228a190.315,190.315,0,0,1-33.828-50.136l20.694-8.958a6,6,0,0,0-4.767-11.013l-20.626,8.928A190.874,190.874,0,0,1,65.051,260h21.9a6,6,0,1,0,0-12H65.173a189.779,189.779,0,0,1,11.843-58.861l19.677,7.788a6,6,0,1,0,4.416-11.158l-19.541-7.734A191.7,191.7,0,0,1,118.3,123.59l14.275,14.275a6,6,0,0,0,8.485-8.485L126.879,115.2A191.675,191.675,0,0,1,176.31,82.252l7.749,17.9a6,6,0,1,0,11.013-4.767l-7.806-17.81A191.474,191.474,0,0,1,251,64.873V83.761a6,6,0,0,0,12,0v-18.8a192,192,0,0,1,58,11.28L314.217,93.5a6.02,6.02,0,0,0,11.2,4.417l6.815-17.212a191.582,191.582,0,0,1,54.122,35.646L373.327,129.38a6,6,0,1,0,8.486,8.485l13.051-13.051A191.764,191.764,0,0,1,428.287,173.4l-17.247,7.466A6,6,0,0,0,407.917,188.756Z"/><path d="M233.066,149.422a6.042,6.042,0,0,0,1.2-.12c1.833-.371,3.7-.7,5.538-.973a6,6,0,1,0-1.77-11.869c-2.045.3-4.113.668-6.148,1.08a6,6,0,0,0,1.184,11.882Z"/><path d="M208.708,144.737A120.739,120.739,0,0,0,135.133,256a6,6,0,0,0,12,0,108.756,108.756,0,0,1,66.274-100.221,6,6,0,0,0-4.7-11.042Z"/><path d="M256,20A236,236,0,0,0,89.123,422.877,236,236,0,1,0,422.877,89.123,234.452,234.452,0,0,0,256,20ZM414.392,414.392A224,224,0,0,1,97.608,97.608,224,224,0,0,1,414.392,414.392Z"/><path d="M261.965,229.266A5.92,5.92,0,0,0,256.016,224H256a5.926,5.926,0,0,0-5.961,5.234l-18.815,164.84a30.5,30.5,0,1,0,48.522-1.353Zm-6.108,54.74,10.789,99.2a30.446,30.446,0,0,0-22.147.338ZM256,430.286a18.5,18.5,0,1,1,18.5-18.5A18.521,18.521,0,0,1,256,430.286Z"/></svg>
